<?xml version="1.0"?>
<mxfile host="www.draw.io" modified="2020-07-24T11:26:03.176Z" agent="5.0 (X11; Linux x86_64) AppleWebKit/537.36 (KHTML, like Gecko) Chrome/84.0.4147.89 Safari/537.36" etag="SOhUuvMCLRJLDeu5lSW0" version="13.5.1" pages="6">
  <diagram id="pgMpRxbDXcNcCbqZLtWQ" name="Cluster Motivation">
    <mxGraphModel dx="2" dy="1" grid="1" gridSize="10" guides="1" tooltips="1" connect="1" arrows="1" fold="1" page="1" pageScale="1" pageWidth="827" pageHeight="1169" math="1" shadow="0">
      <root>
        <mxCell id="37kcE679zBDXHG4-WEp3-0"/>
        <mxCell id="37kcE679zBDXHG4-WEp3-1" parent="37kcE679zBDXHG4-WEp3-0"/>
        <mxCell id="zSzR4fkRApj-zCatV6k4-12" value="" style="verticalLabelPosition=bottom;verticalAlign=top;html=1;shape=mxgraph.basic.arc;startAngle=0.25;endAngle=0.006492516275343945;strokeColor=#b85450;strokeWidth=9;fillColor=#f8cecc;rotation=90;" parent="37kcE679zBDXHG4-WEp3-1" vertex="1">
          <mxGeometry x="104.9" y="189.79" width="120" height="120" as="geometry"/>
        </mxCell>
        <mxCell id="zSzR4fkRApj-zCatV6k4-8" value="" style="verticalLabelPosition=bottom;verticalAlign=top;html=1;shape=mxgraph.basic.arc;startAngle=0.2468173254495136;endAngle=0.24522678332873485;strokeColor=#B3B3B3;strokeWidth=3;fillColor=none;rotation=90;" parent="37kcE679zBDXHG4-WEp3-1" vertex="1">
          <mxGeometry x="104.9" y="189.79" width="120" height="120" as="geometry"/>
        </mxCell>
        <mxCell id="zSzR4fkRApj-zCatV6k4-15" value="" style="endArrow=none;html=1;strokeColor=#9673a6;strokeWidth=12;fillColor=#e1d5e7;" parent="37kcE679zBDXHG4-WEp3-1" source="nGRLppOTAlndVhWQJ_4y-0" edge="1">
          <mxGeometry width="50" height="50" relative="1" as="geometry">
            <mxPoint x="644.9022109910156" y="177.0687102552408" as="sourcePoint"/>
            <mxPoint x="534.9" y="240" as="targetPoint"/>
          </mxGeometry>
        </mxCell>
        <mxCell id="zSzR4fkRApj-zCatV6k4-16" value="" style="endArrow=none;html=1;strokeColor=#9673a6;strokeWidth=12;fillColor=#e1d5e7;" parent="37kcE679zBDXHG4-WEp3-1" edge="1">
          <mxGeometry width="50" height="50" relative="1" as="geometry">
            <mxPoint x="534.9" y="440" as="sourcePoint"/>
            <mxPoint x="534.9" y="240" as="targetPoint"/>
          </mxGeometry>
        </mxCell>
        <mxCell id="zSzR4fkRApj-zCatV6k4-17" value="" style="endArrow=none;html=1;strokeColor=#9673a6;strokeWidth=12;fillColor=#e1d5e7;" parent="37kcE679zBDXHG4-WEp3-1" edge="1">
          <mxGeometry width="50" height="50" relative="1" as="geometry">
            <mxPoint x="533.9" y="440" as="sourcePoint"/>
            <mxPoint x="253.9" y="440" as="targetPoint"/>
          </mxGeometry>
        </mxCell>
        <mxCell id="zSzR4fkRApj-zCatV6k4-18" value="" style="endArrow=none;html=1;strokeColor=#9673a6;strokeWidth=12;fillColor=#e1d5e7;" parent="37kcE679zBDXHG4-WEp3-1" target="IReG4mML2gOAaVabHAY7-2" edge="1">
          <mxGeometry width="50" height="50" relative="1" as="geometry">
            <mxPoint x="254.9" y="440" as="sourcePoint"/>
            <mxPoint x="188.4860467663299" y="331.05245038248233" as="targetPoint"/>
          </mxGeometry>
        </mxCell>
        <mxCell id="zSzR4fkRApj-zCatV6k4-10" value="" style="endArrow=none;html=1;strokeWidth=9;strokeColor=#b85450;exitX=1;exitY=0.5;exitDx=0;exitDy=0;fillColor=#f8cecc;" parent="37kcE679zBDXHG4-WEp3-1" edge="1">
          <mxGeometry width="50" height="50" relative="1" as="geometry">
            <mxPoint x="224.9" y="250" as="sourcePoint"/>
            <mxPoint x="534.9" y="240" as="targetPoint"/>
          </mxGeometry>
        </mxCell>
        <mxCell id="zSzR4fkRApj-zCatV6k4-11" value="" style="endArrow=none;html=1;strokeColor=#b85450;strokeWidth=9;fillColor=#f8cecc;" parent="37kcE679zBDXHG4-WEp3-1" source="nGRLppOTAlndVhWQJ_4y-0" edge="1">
          <mxGeometry width="50" height="50" relative="1" as="geometry">
            <mxPoint x="646.2532643010253" y="175.0233416917851" as="sourcePoint"/>
            <mxPoint x="534.9" y="240" as="targetPoint"/>
          </mxGeometry>
        </mxCell>
        <mxCell id="zSzR4fkRApj-zCatV6k4-13" value="" style="endArrow=none;html=1;strokeWidth=6;strokeColor=#d6b656;fillColor=#fff2cc;" parent="37kcE679zBDXHG4-WEp3-1" source="IReG4mML2gOAaVabHAY7-0" edge="1">
          <mxGeometry width="50" height="50" relative="1" as="geometry">
            <mxPoint x="243.54999999999998" y="260" as="sourcePoint"/>
            <mxPoint x="534.9" y="240" as="targetPoint"/>
          </mxGeometry>
        </mxCell>
        <mxCell id="zSzR4fkRApj-zCatV6k4-14" value="" style="endArrow=none;html=1;strokeColor=#d6b656;strokeWidth=6;fillColor=#fff2cc;" parent="37kcE679zBDXHG4-WEp3-1" source="nGRLppOTAlndVhWQJ_4y-0" edge="1">
          <mxGeometry width="50" height="50" relative="1" as="geometry">
            <mxPoint x="664.9032643010253" y="185.0233416917851" as="sourcePoint"/>
            <mxPoint x="534.9" y="240" as="targetPoint"/>
          </mxGeometry>
        </mxCell>
        <mxCell id="PzjnMgmLs-SK1wRJxOcU-3" value="" style="ellipse;whiteSpace=wrap;html=1;aspect=fixed;fillColor=none;" parent="37kcE679zBDXHG4-WEp3-1" vertex="1">
          <mxGeometry x="549.9" y="74.79" width="250" height="250" as="geometry"/>
        </mxCell>
        <mxCell id="Ye35nyoGRcnFWh3MsJAR-0" value="" style="ellipse;whiteSpace=wrap;html=1;aspect=fixed;fillColor=none;" parent="37kcE679zBDXHG4-WEp3-1" vertex="1">
          <mxGeometry x="40.00000000000001" y="214.9" width="249.79" height="249.79" as="geometry"/>
        </mxCell>
        <mxCell id="4iuosUFF6Wcp6z_lQXhv-2" value="" style="endArrow=none;html=1;strokeWidth=3;strokeColor=#B3B3B3;exitX=1;exitY=0.5;exitDx=0;exitDy=0;" parent="37kcE679zBDXHG4-WEp3-1" edge="1">
          <mxGeometry width="50" height="50" relative="1" as="geometry">
            <mxPoint x="224.9" y="250" as="sourcePoint"/>
            <mxPoint x="534.9" y="240" as="targetPoint"/>
          </mxGeometry>
        </mxCell>
        <mxCell id="4iuosUFF6Wcp6z_lQXhv-3" value="" style="endArrow=none;html=1;strokeColor=#B3B3B3;strokeWidth=3;" parent="37kcE679zBDXHG4-WEp3-1" source="nGRLppOTAlndVhWQJ_4y-0" edge="1">
          <mxGeometry width="50" height="50" relative="1" as="geometry">
            <mxPoint x="734.9" y="120" as="sourcePoint"/>
            <mxPoint x="534.9" y="240" as="targetPoint"/>
          </mxGeometry>
        </mxCell>
        <mxCell id="4iuosUFF6Wcp6z_lQXhv-4" value="" style="endArrow=none;html=1;strokeColor=#B3B3B3;strokeWidth=3;" parent="37kcE679zBDXHG4-WEp3-1" edge="1">
          <mxGeometry width="50" height="50" relative="1" as="geometry">
            <mxPoint x="534.9" y="440" as="sourcePoint"/>
            <mxPoint x="534.9" y="240" as="targetPoint"/>
          </mxGeometry>
        </mxCell>
        <mxCell id="4iuosUFF6Wcp6z_lQXhv-5" value="" style="endArrow=none;html=1;strokeColor=#B3B3B3;strokeWidth=3;" parent="37kcE679zBDXHG4-WEp3-1" edge="1">
          <mxGeometry width="50" height="50" relative="1" as="geometry">
            <mxPoint x="534.9" y="440" as="sourcePoint"/>
            <mxPoint x="254.9" y="440" as="targetPoint"/>
          </mxGeometry>
        </mxCell>
        <mxCell id="4iuosUFF6Wcp6z_lQXhv-6" value="" style="endArrow=none;html=1;strokeColor=#B3B3B3;strokeWidth=3;entryX=0.962;entryY=0.332;entryDx=0;entryDy=0;entryPerimeter=0;" parent="37kcE679zBDXHG4-WEp3-1" source="IReG4mML2gOAaVabHAY7-2" target="zSzR4fkRApj-zCatV6k4-8" edge="1">
          <mxGeometry width="50" height="50" relative="1" as="geometry">
            <mxPoint x="254.9" y="440" as="sourcePoint"/>
            <mxPoint x="184.09999999999994" y="306.4" as="targetPoint"/>
          </mxGeometry>
        </mxCell>
        <mxCell id="4iuosUFF6Wcp6z_lQXhv-7" value="" style="endArrow=none;html=1;strokeColor=#B3B3B3;strokeWidth=3;entryX=0;entryY=0;entryDx=0;entryDy=0;" parent="37kcE679zBDXHG4-WEp3-1" edge="1">
          <mxGeometry width="50" height="50" relative="1" as="geometry">
            <mxPoint x="54.9" y="120" as="sourcePoint"/>
            <mxPoint x="122.47359312880727" y="207.57359312880726" as="targetPoint"/>
          </mxGeometry>
        </mxCell>
        <mxCell id="c7QpUZR4yU53VAmnjCTs-0" value="&lt;br&gt;&lt;br&gt;A" style="whiteSpace=wrap;html=1;rounded=0;shadow=0;strokeWidth=1;fillColor=#6d8764;fontSize=24;align=right;strokeColor=#3A5431;" parent="37kcE679zBDXHG4-WEp3-1" vertex="1">
          <mxGeometry x="154.9" y="329.78999999999996" width="20" height="20" as="geometry"/>
        </mxCell>
        <mxCell id="m0fRtht5hiE_GrRAHNec-0" value="&lt;br&gt;&lt;br&gt;B" style="whiteSpace=wrap;html=1;rounded=0;shadow=0;strokeWidth=1;fillColor=#e51400;fontSize=24;align=right;strokeColor=#B20000;" parent="37kcE679zBDXHG4-WEp3-1" vertex="1">
          <mxGeometry x="664.9" y="189.79" width="20" height="20" as="geometry"/>
        </mxCell>
        <mxCell id="IReG4mML2gOAaVabHAY7-0" value="" style="ellipse;whiteSpace=wrap;html=1;aspect=fixed;fillColor=#d5e8d4;strokeColor=#82b366;rotation=5;" parent="37kcE679zBDXHG4-WEp3-1" vertex="1">
          <mxGeometry x="224.89999999999998" y="240" width="20" height="20" as="geometry"/>
        </mxCell>
        <mxCell id="PzjnMgmLs-SK1wRJxOcU-0" value="&lt;div&gt;&lt;font style=&quot;font-size: 16px&quot;&gt;`c_2^A`&lt;/font&gt;&lt;/div&gt;" style="text;html=1;strokeColor=none;fillColor=none;align=center;verticalAlign=middle;whiteSpace=wrap;rounded=0;fontColor=#000000;" parent="37kcE679zBDXHG4-WEp3-1" vertex="1">
          <mxGeometry x="134.90000000000003" y="270" width="40" height="20" as="geometry"/>
        </mxCell>
        <mxCell id="PzjnMgmLs-SK1wRJxOcU-1" value="&lt;div&gt;&lt;font style=&quot;font-size: 16px&quot;&gt;`c_1^A`&lt;/font&gt;&lt;/div&gt;" style="text;html=1;strokeColor=none;fillColor=none;align=center;verticalAlign=middle;whiteSpace=wrap;rounded=0;fontColor=#000000;" parent="37kcE679zBDXHG4-WEp3-1" vertex="1">
          <mxGeometry x="194.9" y="309.78999999999996" width="40" height="20" as="geometry"/>
        </mxCell>
        <mxCell id="PzjnMgmLs-SK1wRJxOcU-2" value="&lt;div&gt;&lt;font style=&quot;font-size: 16px&quot;&gt;`c_3^A`&lt;/font&gt;&lt;/div&gt;" style="text;html=1;strokeColor=none;fillColor=none;align=center;verticalAlign=middle;whiteSpace=wrap;rounded=0;fontColor=#000000;" parent="37kcE679zBDXHG4-WEp3-1" vertex="1">
          <mxGeometry x="224.9" y="220" width="40" height="20" as="geometry"/>
        </mxCell>
        <mxCell id="nGRLppOTAlndVhWQJ_4y-1" value="&lt;div&gt;&lt;font style=&quot;font-size: 16px&quot;&gt;`c_1^B`&lt;/font&gt;&lt;/div&gt;" style="text;html=1;strokeColor=none;fillColor=none;align=center;verticalAlign=middle;whiteSpace=wrap;rounded=0;fontColor=#000000;" parent="37kcE679zBDXHG4-WEp3-1" vertex="1">
          <mxGeometry x="634.9" y="130" width="40" height="20" as="geometry"/>
        </mxCell>
        <mxCell id="IReG4mML2gOAaVabHAY7-2" value="" style="ellipse;whiteSpace=wrap;html=1;aspect=fixed;fillColor=#d5e8d4;strokeColor=#82b366;rotation=5;" parent="37kcE679zBDXHG4-WEp3-1" vertex="1">
          <mxGeometry x="184.48000000000002" y="319.58" width="20.42" height="20.42" as="geometry"/>
        </mxCell>
        <mxCell id="zSzR4fkRApj-zCatV6k4-2" value="" style="endArrow=none;html=1;strokeColor=#B3B3B3;strokeWidth=3;" parent="37kcE679zBDXHG4-WEp3-1" target="IReG4mML2gOAaVabHAY7-2" edge="1">
          <mxGeometry width="50" height="50" relative="1" as="geometry">
            <mxPoint x="254.9" y="440" as="sourcePoint"/>
            <mxPoint x="184.09999999999994" y="306.4" as="targetPoint"/>
          </mxGeometry>
        </mxCell>
        <mxCell id="IReG4mML2gOAaVabHAY7-1" value="" style="ellipse;whiteSpace=wrap;html=1;aspect=fixed;fillColor=#d5e8d4;strokeColor=#82b366;rotation=5;" parent="37kcE679zBDXHG4-WEp3-1" vertex="1">
          <mxGeometry x="154.48000000000002" y="299.37" width="20.42" height="20.42" as="geometry"/>
        </mxCell>
        <mxCell id="nGRLppOTAlndVhWQJ_4y-0" value="" style="ellipse;whiteSpace=wrap;html=1;aspect=fixed;fillColor=#f8cecc;strokeColor=#b85450;" parent="37kcE679zBDXHG4-WEp3-1" vertex="1">
          <mxGeometry x="644.9" y="160" width="20" height="20" as="geometry"/>
        </mxCell>
        <mxCell id="zSzR4fkRApj-zCatV6k4-9" value="" style="endArrow=none;html=1;strokeColor=#B3B3B3;strokeWidth=3;" parent="37kcE679zBDXHG4-WEp3-1" target="nGRLppOTAlndVhWQJ_4y-0" edge="1">
          <mxGeometry width="50" height="50" relative="1" as="geometry">
            <mxPoint x="734.9" y="120" as="sourcePoint"/>
            <mxPoint x="534.9" y="240" as="targetPoint"/>
          </mxGeometry>
        </mxCell>
        <mxCell id="zSzR4fkRApj-zCatV6k4-0" value="" style="triangle;whiteSpace=wrap;html=1;strokeColor=#666666;strokeWidth=1;fillColor=#f5f5f5;fontColor=#333333;rotation=60;" parent="37kcE679zBDXHG4-WEp3-1" vertex="1">
          <mxGeometry x="204.9" y="380" width="50" height="30" as="geometry"/>
        </mxCell>
        <mxCell id="zSzR4fkRApj-zCatV6k4-19" value="" style="shape=table;html=1;whiteSpace=wrap;startSize=0;container=1;collapsible=0;childLayout=tableLayout;strokeWidth=1;fillColor=none;" parent="37kcE679zBDXHG4-WEp3-1" vertex="1">
          <mxGeometry x="214.9" y="40" width="280" height="120" as="geometry"/>
        </mxCell>
        <mxCell id="zSzR4fkRApj-zCatV6k4-33" style="shape=partialRectangle;html=1;whiteSpace=wrap;collapsible=0;dropTarget=0;pointerEvents=0;fillColor=none;top=0;left=0;bottom=0;right=0;points=[[0,0.5],[1,0.5]];portConstraint=eastwest;" parent="zSzR4fkRApj-zCatV6k4-19" vertex="1">
          <mxGeometry width="280" height="40" as="geometry"/>
        </mxCell>
        <mxCell id="zSzR4fkRApj-zCatV6k4-34" style="shape=partialRectangle;html=1;whiteSpace=wrap;connectable=0;fillColor=none;top=0;left=0;bottom=0;right=0;overflow=hidden;" parent="zSzR4fkRApj-zCatV6k4-33" vertex="1">
          <mxGeometry width="60" height="40" as="geometry"/>
        </mxCell>
        <mxCell id="zSzR4fkRApj-zCatV6k4-35" value="role model&lt;br&gt;(best candidates)" style="shape=partialRectangle;html=1;whiteSpace=wrap;connectable=0;top=0;left=0;bottom=0;right=0;overflow=hidden;fillColor=none;" parent="zSzR4fkRApj-zCatV6k4-33" vertex="1">
          <mxGeometry x="60" width="120" height="40" as="geometry"/>
        </mxCell>
        <mxCell id="zSzR4fkRApj-zCatV6k4-36" style="shape=partialRectangle;html=1;whiteSpace=wrap;connectable=0;top=0;left=0;bottom=0;right=0;overflow=hidden;fillColor=none;" parent="zSzR4fkRApj-zCatV6k4-33" vertex="1">
          <mxGeometry x="180" width="100" height="40" as="geometry"/>
        </mxCell>
        <mxCell id="zSzR4fkRApj-zCatV6k4-20" value="" style="shape=partialRectangle;html=1;whiteSpace=wrap;collapsible=0;dropTarget=0;pointerEvents=0;fillColor=none;top=0;left=0;bottom=0;right=0;points=[[0,0.5],[1,0.5]];portConstraint=eastwest;" parent="zSzR4fkRApj-zCatV6k4-19" vertex="1">
          <mxGeometry y="40" width="280" height="40" as="geometry"/>
        </mxCell>
        <mxCell id="zSzR4fkRApj-zCatV6k4-21" value="Cluster 1" style="shape=partialRectangle;html=1;whiteSpace=wrap;connectable=0;fillColor=none;top=0;left=0;bottom=0;right=0;overflow=hidden;" parent="zSzR4fkRApj-zCatV6k4-20" vertex="1">
          <mxGeometry width="60" height="40" as="geometry"/>
        </mxCell>
        <mxCell id="zSzR4fkRApj-zCatV6k4-22" value="{&lt;font style=&quot;font-size: 16px&quot;&gt;`c_2^A`,&lt;/font&gt;&lt;font style=&quot;font-size: 16px&quot;&gt; `c_1^B`&lt;/font&gt;}" style="shape=partialRectangle;html=1;whiteSpace=wrap;connectable=0;top=0;left=0;bottom=0;right=0;overflow=hidden;fillColor=#B85450;" parent="zSzR4fkRApj-zCatV6k4-20" vertex="1">
          <mxGeometry x="60" width="120" height="40" as="geometry"/>
        </mxCell>
        <mxCell id="zSzR4fkRApj-zCatV6k4-23" value="&lt;div&gt;{&lt;font style=&quot;font-size: 16px&quot;&gt;`c_3^A`,&lt;/font&gt;&lt;font style=&quot;font-size: 16px&quot;&gt; `c_1^B`&lt;/font&gt;}&lt;/div&gt;" style="shape=partialRectangle;html=1;whiteSpace=wrap;connectable=0;top=0;left=0;bottom=0;right=0;overflow=hidden;fillColor=#D6B656;" parent="zSzR4fkRApj-zCatV6k4-20" vertex="1">
          <mxGeometry x="180" width="100" height="40" as="geometry"/>
        </mxCell>
        <mxCell id="zSzR4fkRApj-zCatV6k4-24" value="" style="shape=partialRectangle;html=1;whiteSpace=wrap;collapsible=0;dropTarget=0;pointerEvents=0;fillColor=none;top=0;left=0;bottom=0;right=0;points=[[0,0.5],[1,0.5]];portConstraint=eastwest;" parent="zSzR4fkRApj-zCatV6k4-19" vertex="1">
          <mxGeometry y="80" width="280" height="40" as="geometry"/>
        </mxCell>
        <mxCell id="zSzR4fkRApj-zCatV6k4-25" value="Cluster 2" style="shape=partialRectangle;html=1;whiteSpace=wrap;connectable=0;fillColor=none;top=0;left=0;bottom=0;right=0;overflow=hidden;" parent="zSzR4fkRApj-zCatV6k4-24" vertex="1">
          <mxGeometry width="60" height="40" as="geometry"/>
        </mxCell>
        <mxCell id="zSzR4fkRApj-zCatV6k4-26" value="{&lt;font style=&quot;font-size: 16px&quot;&gt;`c_1^A`,&lt;/font&gt;&lt;font style=&quot;font-size: 16px&quot;&gt; `c_1^B`&lt;/font&gt;}" style="shape=partialRectangle;html=1;whiteSpace=wrap;connectable=0;top=0;left=0;bottom=0;right=0;overflow=hidden;fillColor=#9673A6;" parent="zSzR4fkRApj-zCatV6k4-24" vertex="1">
          <mxGeometry x="60" width="120" height="40" as="geometry"/>
        </mxCell>
        <mxCell id="zSzR4fkRApj-zCatV6k4-27" value="" style="shape=partialRectangle;html=1;whiteSpace=wrap;connectable=0;fillColor=none;top=0;left=0;bottom=0;right=0;overflow=hidden;" parent="zSzR4fkRApj-zCatV6k4-24" vertex="1">
          <mxGeometry x="180" width="100" height="40" as="geometry"/>
        </mxCell>
      </root>
    </mxGraphModel>
  </diagram>
</mxfile>
